<?xml version="1.0" encoding="utf-8"?>
<!-- Generator: Adobe Illustrator 21.0.0, SVG Export Plug-In . SVG Version: 6.00 Build 0)  -->
<svg version="1.1" id="图层_1" xmlns="http://www.w3.org/2000/svg" xmlns:xlink="http://www.w3.org/1999/xlink" x="0px" y="0px"
	 viewBox="0 0 200 200" style="enable-background:new 0 0 200 200;" xml:space="preserve">
<style type="text/css">
	.st0{fill:none;stroke:#333333;stroke-width:10;stroke-miterlimit:10;}
	.st1{fill:#333333;}
</style>
<path class="st0" d="M23.4,75.8l68.9,31c6.1,2.9,8.7,2.9,15.3,0l68.9-31c5.1-2.4,5.2-12.4,0-15.3l-68.9-36.4c-5.4-3.2-9.2-3-15.3,0
	L23.4,60.5C18.2,63.9,18,72.9,23.4,75.8z"/>
<path class="st1" d="M23.4,108.3l68.9,31c6.1,2.9,8.7,2.9,15.3,0l68.9-31c3.4-1.6,4.6-9,4.6-13c-4.4,2.2-10.7,5.4-10.8,5.4L100,133
	l-70.4-32.4c0.2,0.2-6.2-2.8-10.8-5.4C18.8,99.1,19.8,106.3,23.4,108.3z"/>
<path class="st1" d="M100,165.5L29.6,133c0.2,0.2-6.2-2.8-10.8-5.4c0,3.9,1,11.1,4.6,13l68.9,31c6.1,2.9,8.7,2.9,15.3,0l68.9-31
	c3.4-1.6,4.6-9,4.6-13c-4.4,2.2-10.7,5.4-10.8,5.4L100,165.5z"/>
</svg>
