<?xml version="1.0" encoding="utf-8"?>
<!-- Generator: Adobe Illustrator 21.0.0, SVG Export Plug-In . SVG Version: 6.00 Build 0)  -->
<svg version="1.1" xmlns="http://www.w3.org/2000/svg" xmlns:xlink="http://www.w3.org/1999/xlink" x="0px" y="0px"
	 viewBox="0 0 360 112.6" style="enable-background:new 0 0 360 112.6;" xml:space="preserve">
<style type="text/css">
	.st0{fill:url(#SVGID_1_);}
	.st1{fill:url(#SVGID_2_);}
	.st2{fill:url(#SVGID_3_);}
	.st3{fill:url(#SVGID_4_);}
	.st4{fill:url(#SVGID_5_);}
	.st5{fill:url(#SVGID_6_);}
	.st6{fill:url(#SVGID_7_);}
	.st7{fill:url(#SVGID_8_);}
	.st8{fill:url(#SVGID_9_);}
	.st9{fill:url(#SVGID_10_);}
	.st10{fill:url(#SVGID_11_);}
	.st11{fill:url(#SVGID_12_);}
	.st12{fill:url(#SVGID_13_);}
	.st13{fill:url(#SVGID_14_);}
	.st14{fill:url(#SVGID_15_);}
	.st15{fill:url(#SVGID_16_);}
	.st16{fill:url(#SVGID_17_);}
	.st17{fill:url(#SVGID_18_);}
	.st18{fill:url(#SVGID_19_);}
	.st19{fill:url(#SVGID_20_);}
	.st20{fill:url(#SVGID_21_);}
	.st21{fill:url(#SVGID_22_);}
	.st22{fill:url(#SVGID_23_);}
	.st23{fill:url(#SVGID_24_);}
	.st24{fill:url(#SVGID_25_);}
	.st25{fill:url(#SVGID_26_);}
	.st26{fill:url(#SVGID_27_);}
	.st27{fill:url(#SVGID_28_);}
	.st28{fill:url(#SVGID_29_);}
	.st29{fill:url(#SVGID_30_);}
</style>
<g id="图层_1">
	<g>
		<g>
			<linearGradient id="SVGID_1_" gradientUnits="userSpaceOnUse" x1="1.9538" y1="25.6496" x2="78.9924" y2="25.6496">
				<stop  offset="0" style="stop-color:#8F6225;stop-opacity:0.6"/>
				<stop  offset="1" style="stop-color:#FBD8A8;stop-opacity:0.8"/>
			</linearGradient>
			<path class="st0" d="M79,39.4c0,0.2,0,0.4,0,0.6c-0.1,2.8-1.3,5.3-3.2,7.2c-2,2-4.7,3.2-7.8,3.2c-0.4,0-0.7,0-1.1-0.1
				c-5.6-0.5-9.9-5.2-9.9-10.9v0c0-0.2,0-0.3,0-0.5c0-2.1-0.3-4.1-0.8-6.1c-0.1-0.5-0.3-1-0.4-1.5c-0.1-0.2-0.1-0.5-0.2-0.7
				c-0.1-0.2-0.1-0.4-0.2-0.6c-0.1-0.2-0.1-0.4-0.2-0.5c-0.1-0.2-0.1-0.3-0.2-0.5c-0.1-0.2-0.2-0.4-0.2-0.6c-0.3-0.7-0.7-1.4-1-2.1
				C49,17.7,39.9,11.9,29.5,11.9c-15,0-27.1,11.9-27.5,26.8c0.1-5.7,1.4-11,3.7-15.8c1.9-4,4.5-7.6,7.6-10.7
				c3.1-3.1,6.7-5.7,10.7-7.6c5-2.4,10.6-3.7,16.5-3.7C46.4,0.9,52,2.2,57,4.6c0,0,0,0,0,0c4,1.9,7.6,4.5,10.7,7.6
				c3.1,3.1,5.7,6.7,7.6,10.7c1.7,3.5,2.8,7.3,3.3,11.2C78.9,35.9,79,37.6,79,39.4z"/>
			<linearGradient id="SVGID_2_" gradientUnits="userSpaceOnUse" x1="29.4462" y1="11.8981" x2="29.4462" y2="77.9175">
				<stop  offset="0" style="stop-color:#8F6225;stop-opacity:0.6"/>
				<stop  offset="1" style="stop-color:#FBD8A8;stop-opacity:0.8"/>
			</linearGradient>
			<path class="st1" d="M56.9,38.4c-0.2-4.2-2-7.9-4.8-10.7c-2.8-2.8-6.5-4.6-10.7-4.8c-0.3,0-0.6,0-1,0c-0.2,0-0.3,0-0.5,0
				c-15,0.3-27,12.5-27,27.5c0,4.8,1.2,9.2,3.4,13.2c4.5,8.3,13.2,14,23.2,14.3C34,77.8,28.7,76.5,24,74.2
				c-8-3.8-14.5-10.3-18.3-18.3C3.4,51.1,2.1,45.8,2,40.1c0-0.1,0-0.2,0-0.4v-0.3c0-0.2,0-0.5,0-0.7c0.4-14.9,12.6-26.8,27.5-26.8
				c10.4,0,19.5,5.8,24.2,14.3c0.4,0.7,0.7,1.4,1,2.1c0.1,0.2,0.2,0.4,0.2,0.6c0.1,0.2,0.1,0.3,0.2,0.5c0.1,0.2,0.1,0.4,0.2,0.5
				c0.1,0.2,0.1,0.4,0.2,0.6c0.1,0.2,0.2,0.5,0.2,0.7c0.2,0.5,0.3,1,0.4,1.5c0.1,0.5,0.2,0.9,0.3,1.4c0,0.2,0.1,0.5,0.1,0.7
				c0.1,0.5,0.1,0.9,0.2,1.4C56.9,37,56.9,37.7,56.9,38.4z"/>
			<linearGradient id="SVGID_3_" gradientUnits="userSpaceOnUse" x1="12.9489" y1="50.4205" x2="86.3613" y2="50.4205">
				<stop  offset="0" style="stop-color:#8F6225;stop-opacity:0.6"/>
				<stop  offset="1" style="stop-color:#FBD8A8;stop-opacity:0.8"/>
			</linearGradient>
			<path class="st2" d="M86.4,49.8C78,66.3,61,77.6,41.3,77.9c-0.3,0-0.5,0-0.8,0h0c-0.3,0-0.6,0-0.8,0c0,0-0.1,0-0.1,0
				c-10-0.3-18.7-6-23.2-14.3c-2.1-3.9-3.4-8.4-3.4-13.2c0-15,12.1-27.3,27-27.5c-0.5,0-0.9,0-1.4,0.1c-3.8,0.4-7.2,2.2-9.8,4.7
				c-3,3-4.8,7.1-4.8,11.7c0,8.5,6.4,15.5,14.6,16.4c0.6,0.1,1.2,0.1,1.9,0.1h36c0.9,0,1.7-0.1,2.5-0.3c2-0.5,3.8-1.5,5.2-2.9
				c0.6-0.6,1.1-1.3,1.6-2c0.1-0.2,0.2-0.4,0.3-0.6C86.2,50,86.3,49.9,86.4,49.8z"/>
			<linearGradient id="SVGID_4_" gradientUnits="userSpaceOnUse" x1="40.4701" y1="61.4248" x2="106.5077" y2="61.4248">
				<stop  offset="0" style="stop-color:#8F6225;stop-opacity:0.6"/>
				<stop  offset="1" style="stop-color:#FBD8A8;stop-opacity:0.8"/>
			</linearGradient>
			<path class="st3" d="M106.5,55.9c0,2.2-0.7,4.3-1.8,6c-0.3,0.4-0.6,0.8-0.9,1.2c-1,1.3-2,2.4-3.2,3.6c-1.6,1.6-3.3,3.1-5.2,4.4
				c-4.8,3.4-10.4,5.7-16.5,6.5c-1.8,0.3-3.7,0.4-5.5,0.4h-33c0.3,0,0.5,0,0.8,0C61,77.6,78,66.3,86.4,49.8c0.4-0.6,0.8-1.1,1.4-1.7
				c2-2,4.7-3.2,7.8-3.2c3,0,5.8,1.2,7.8,3.2C105.3,50.1,106.5,52.9,106.5,55.9z"/>
			<linearGradient id="SVGID_5_" gradientUnits="userSpaceOnUse" x1="101.3835" y1="35.7321" x2="109.1595" y2="35.7321">
				<stop  offset="0" style="stop-color:#8F6225;stop-opacity:0.6"/>
				<stop  offset="1" style="stop-color:#FBD8A8;stop-opacity:0.8"/>
			</linearGradient>
			<path class="st4" d="M105.3,39.6L105.3,39.6c-2.1,0-3.9-1.7-3.9-3.9l0,0c0-2.1,1.7-3.9,3.9-3.9l0,0c2.1,0,3.9,1.7,3.9,3.9l0,0
				C109.2,37.9,107.4,39.6,105.3,39.6z"/>
			<linearGradient id="SVGID_6_" gradientUnits="userSpaceOnUse" x1="86.6122" y1="34.6804" x2="96.4916" y2="34.6804">
				<stop  offset="0" style="stop-color:#8F6225;stop-opacity:0.6"/>
				<stop  offset="1" style="stop-color:#FBD8A8;stop-opacity:0.8"/>
			</linearGradient>
			<path class="st5" d="M91.6,39.6L91.6,39.6c-2.7,0-4.9-2.2-4.9-4.9l0,0c0-2.7,2.2-4.9,4.9-4.9l0,0c2.7,0,4.9,2.2,4.9,4.9l0,0
				C96.5,37.4,94.3,39.6,91.6,39.6z"/>
		</g>
		<g>
			<linearGradient id="SVGID_7_" gradientUnits="userSpaceOnUse" x1="1.1169" y1="94.1111" x2="23.1738" y2="94.1111">
				<stop  offset="0" style="stop-color:#8F6225;stop-opacity:0.6"/>
				<stop  offset="1" style="stop-color:#FBD8A8;stop-opacity:0.8"/>
			</linearGradient>
			<path class="st6" d="M22.8,97.4c-2.4-1.2-4.2-2.2-5.4-3c-1.6-1.2-3-2.6-4.4-4.3c-0.3-0.3-0.6-0.5-1-0.5c-0.6,0-1,0.3-1.3,0.8
				c-1.3,1.7-2.8,3.2-4.4,4.3c-1.1,0.8-2.7,1.7-4.9,2.7c-0.2,0.1-0.2,0.3-0.3,0.5c0.1,0.4,0.3,0.6,0.6,0.6l0.3-0.1
				c2.4-1.1,4.1-2.2,5.3-3c1.5-1.2,2.9-2.6,4.2-4.3c0.1-0.2,0.3-0.3,0.5-0.3c0.1,0,0.2,0,0.3,0.1c1.1,1.5,2.5,2.9,4.1,4.1
				c1.5,1.1,3.4,2.3,5.7,3.4c0.2,0,0.4,0.1,0.4,0.1c0.4-0.1,0.6-0.3,0.6-0.6C23.1,97.7,23,97.5,22.8,97.4z"/>
			<linearGradient id="SVGID_8_" gradientUnits="userSpaceOnUse" x1="1.3794" y1="102.9248" x2="22.9113" y2="102.9248">
				<stop  offset="0" style="stop-color:#8F6225;stop-opacity:0.6"/>
				<stop  offset="1" style="stop-color:#FBD8A8;stop-opacity:0.8"/>
			</linearGradient>
			<path class="st7" d="M22.3,109.3H13v-6.8h7.3c0.4,0,0.5-0.2,0.6-0.6c0-0.4-0.2-0.5-0.6-0.6H13v-5.2c0-0.4-0.3-0.6-0.7-0.6
				c-0.4,0-0.6,0.2-0.6,0.6v13.2H6.1v-8.8c0-0.4-0.3-0.6-0.7-0.6c-0.4,0-0.5,0.2-0.6,0.6v8.8H2c-0.4,0-0.6,0.2-0.6,0.6
				c0,0.4,0.2,0.5,0.6,0.6h20.4c0.4,0,0.5-0.2,0.6-0.6C22.9,109.5,22.7,109.3,22.3,109.3z"/>
			<linearGradient id="SVGID_9_" gradientUnits="userSpaceOnUse" x1="69.5655" y1="100.194" x2="73.4218" y2="100.194">
				<stop  offset="0" style="stop-color:#8F6225;stop-opacity:0.6"/>
				<stop  offset="1" style="stop-color:#FBD8A8;stop-opacity:0.8"/>
			</linearGradient>
			<path class="st8" d="M70.1,95.5c-0.4,0-0.5,0.2-0.6,0.6c0,0.1,0.1,0.3,0.2,0.5c0.8,1.9,1.7,4.5,2.5,8c0.1,0.2,0.3,0.3,0.5,0.3
				c0.4,0,0.6-0.2,0.7-0.5c0-0.1,0-0.3-0.1-0.5c-1-3.9-1.9-6.6-2.6-8.1C70.5,95.6,70.3,95.5,70.1,95.5z"/>
			<linearGradient id="SVGID_10_" gradientUnits="userSpaceOnUse" x1="84.2703" y1="100.1102" x2="88.8457" y2="100.1102">
				<stop  offset="0" style="stop-color:#8F6225;stop-opacity:0.6"/>
				<stop  offset="1" style="stop-color:#FBD8A8;stop-opacity:0.8"/>
			</linearGradient>
			<path class="st9" d="M84.8,104.9c0.2,0,0.3-0.1,0.5-0.2c1.3-2.2,2.5-4.9,3.4-8.2c0.1-0.3,0.1-0.5,0.1-0.6c0-0.4-0.2-0.5-0.5-0.6
				c-0.3,0-0.6,0.2-0.7,0.5c-0.9,3.1-2,5.8-3.3,8.1c-0.1,0.2-0.2,0.3-0.2,0.4C84.3,104.7,84.5,104.8,84.8,104.9z"/>
			<linearGradient id="SVGID_11_" gradientUnits="userSpaceOnUse" x1="68.4404" y1="100.1584" x2="90.5218" y2="100.1584">
				<stop  offset="0" style="stop-color:#8F6225;stop-opacity:0.6"/>
				<stop  offset="1" style="stop-color:#FBD8A8;stop-opacity:0.8"/>
			</linearGradient>
			<path class="st10" d="M90,109.3h-6.8V90.5c0-0.4-0.3-0.6-0.7-0.6c-0.4,0-0.5,0.2-0.6,0.6v18.8h-5.1V90.5c0-0.4-0.2-0.6-0.6-0.6
				c-0.4,0-0.6,0.2-0.6,0.6v18.8H69c-0.4,0-0.6,0.2-0.6,0.6c0,0.4,0.2,0.5,0.6,0.6h21c0.4,0,0.5-0.2,0.6-0.6
				C90.5,109.5,90.3,109.3,90,109.3z"/>
			<linearGradient id="SVGID_12_" gradientUnits="userSpaceOnUse" x1="135.692" y1="100.7691" x2="143.739" y2="100.7691">
				<stop  offset="0" style="stop-color:#8F6225;stop-opacity:0.6"/>
				<stop  offset="1" style="stop-color:#FBD8A8;stop-opacity:0.8"/>
			</linearGradient>
			<path class="st11" d="M142.1,90.3h-3.2c-1.1,0-1.7,0.6-1.7,1.7v9c0,1.8-0.2,3.8-0.6,6c-0.2,1-0.4,2-0.8,3
				c-0.1,0.4-0.1,0.6-0.1,0.7c0,0.3,0.2,0.5,0.5,0.6c0.3,0,0.5-0.1,0.6-0.3c0.4-0.9,0.8-2.2,1.1-3.8c0.2-1.3,0.4-2.7,0.5-4h4.2v6
				c0,0.6-0.3,0.9-0.9,0.9c-1.2-0.3-1.7-0.5-1.8-0.5c-0.4,0-0.6,0.3-0.6,0.8c0,0.2,0.2,0.4,0.5,0.5c1.2,0.3,1.9,0.5,2,0.5
				c1.4,0,2.1-0.7,2.1-2.1V92C143.7,90.8,143.2,90.3,142.1,90.3z M142.5,102h-4.1c0-0.3,0-0.7,0-1v-3.6h4.1V102z M142.5,96.2h-4.1
				v-4c0-0.5,0.2-0.7,0.7-0.7h2.6c0.5,0,0.8,0.2,0.8,0.7V96.2z"/>
			<linearGradient id="SVGID_13_" gradientUnits="userSpaceOnUse" x1="145.991" y1="100.901" x2="157.51" y2="100.901">
				<stop  offset="0" style="stop-color:#8F6225;stop-opacity:0.6"/>
				<stop  offset="1" style="stop-color:#FBD8A8;stop-opacity:0.8"/>
			</linearGradient>
			<path class="st12" d="M157,110c-1.7-0.8-3-1.7-4-2.5c0.8-0.8,1.4-1.7,2-2.8c0.6-1.1,1.1-2.2,1.5-3.3c0.2-0.6,0.2-1.1,0.2-1.4
				c0-1-0.5-1.5-1.5-1.5h-8v-6.3c0-0.6,0.3-0.8,0.8-0.8h3.5h2.4c0.6,0,0.9,0.3,0.9,0.9l-0.1,2.7c0,0.4-0.1,0.6-0.3,0.8
				c-0.2,0.2-0.6,0.3-1.1,0.3c-0.4,0-1.2-0.2-2.2-0.5c-0.1,0-0.2,0-0.2,0c-0.3,0-0.5,0.3-0.6,0.7c0,0.3,0.1,0.4,0.4,0.6
				c1.1,0.4,2,0.6,2.6,0.6c0.8,0,1.5-0.1,1.9-0.4c0.4-0.3,0.6-0.8,0.6-1.5l0-3.4c0-1.2-0.6-1.9-1.9-1.9h-6.5c-1.2,0-1.8,0.6-1.8,1.8
				V111c0,0.4,0.2,0.6,0.7,0.6c0.4,0,0.6-0.2,0.6-0.6V99.7h0.7c0.2,1.2,0.5,2.3,1,3.6c0.6,1.5,1.3,2.8,2.1,3.9
				c0.1,0.1,0.2,0.2,0.3,0.4c-0.7,0.7-1.8,1.5-3.4,2.5c-0.2,0.1-0.3,0.2-0.4,0.5c0,0.4,0.2,0.6,0.6,0.7c0.2,0,0.3,0,0.5-0.1
				c1.4-0.9,2.6-1.9,3.5-2.7c0.3,0.3,0.7,0.6,1.1,0.9c0.9,0.7,2,1.3,3.1,1.9h0.5c0.4,0,0.5-0.2,0.6-0.6
				C157.5,110.4,157.3,110.2,157,110z M150.1,103.3c-0.4-1.1-0.8-2.3-1-3.6h5.9c0.4,0,0.6,0.2,0.6,0.6c0,0.2-0.1,0.6-0.2,1
				c-0.3,1-0.8,1.9-1.3,2.9c-0.4,0.8-1.1,1.6-1.8,2.5C151.4,105.8,150.7,104.7,150.1,103.3z"/>
			<linearGradient id="SVGID_14_" gradientUnits="userSpaceOnUse" x1="203.2308" y1="95.8478" x2="224.858" y2="95.8478">
				<stop  offset="0" style="stop-color:#8F6225;stop-opacity:0.6"/>
				<stop  offset="1" style="stop-color:#FBD8A8;stop-opacity:0.8"/>
			</linearGradient>
			<path class="st13" d="M224.4,99.5c-3.6-0.7-6.2-1.4-7.8-1.9c-0.2-0.1-0.5-0.2-0.7-0.3c0.5-0.3,0.9-0.5,1.4-0.8
				c1.6-1.1,2.9-2,3.6-3c0.4-0.5,0.6-0.9,0.6-1.2c0-1.2-0.6-1.8-1.8-1.8h-9.2c-1,0-1.7,0.3-2.1,0.8c-0.6,0.8-1.2,1.4-2,1.9
				c-0.7,0.5-1.4,0.8-2.2,1.1c-0.3,0.1-0.5,0.3-0.6,0.6c0,0.4,0.2,0.6,0.6,0.6c0.1,0,0.2,0,0.5-0.1c0.9-0.4,1.7-0.8,2.4-1.3
				c0.3-0.2,0.6-0.4,0.9-0.7c0.7,1,1.7,1.9,2.8,2.7c0.7,0.4,1.4,0.8,2.2,1.2c-0.7,0.3-1.4,0.6-2.2,0.9c-2.4,0.8-4.8,1.4-7.2,1.7
				c-0.4,0-0.5,0.3-0.6,0.6c0,0.3,0.3,0.5,0.7,0.6c2.3-0.3,4.8-0.9,7.4-1.8c1.1-0.4,2.2-0.9,3.1-1.3c0.3,0.1,0.6,0.2,0.9,0.4
				c2.3,0.9,4.9,1.6,8,2.3c0.4,0.1,0.7,0.1,0.9,0.1c0.3,0,0.5-0.2,0.6-0.6C224.8,99.9,224.6,99.6,224.4,99.5z M214.6,96.7
				c-1-0.4-1.8-0.9-2.5-1.4c-1.2-0.8-2.2-1.7-3-2.8c0,0,0,0-0.1-0.1c0.1-0.1,0.2-0.2,0.3-0.4c0.3-0.3,0.7-0.5,1.3-0.5h9.2
				c0.4,0,0.6,0.2,0.6,0.6c0,0.1-0.2,0.4-0.5,0.9c-0.7,0.8-1.9,1.7-3.4,2.6C215.9,96,215.2,96.4,214.6,96.7z"/>
			<linearGradient id="SVGID_15_" gradientUnits="userSpaceOnUse" x1="203.8054" y1="105.4396" x2="223.2532" y2="105.4396">
				<stop  offset="0" style="stop-color:#8F6225;stop-opacity:0.6"/>
				<stop  offset="1" style="stop-color:#FBD8A8;stop-opacity:0.8"/>
			</linearGradient>
			<path class="st14" d="M221.1,102.7H214c0.1-0.7,0.2-1.6,0.3-2.5c0-0.4-0.3-0.6-0.6-0.6c-0.4,0-0.5,0.2-0.6,0.6
				c-0.1,0.9-0.2,1.7-0.3,2.5h-8c-0.4,0.1-0.5,0.3-0.6,0.7c0,0.3,0.2,0.5,0.6,0.5h7.8c0,0.1,0,0.2,0,0.2c-0.4,1.3-1,2.3-1.7,3.1
				c-0.7,0.8-1.6,1.3-2.7,1.8c-0.9,0.4-2.1,0.7-3.7,0.8c-0.4,0.1-0.6,0.3-0.6,0.6c0,0.4,0.2,0.7,0.6,0.8c1.7-0.2,3.1-0.5,4.1-1
				c1.2-0.5,2.2-1.2,3.1-2c0.8-0.9,1.5-2,1.9-3.4c0.1-0.3,0.2-0.6,0.2-0.9h7c0.8,0,1.2,0.4,1.2,1.2c0,0.8,0,1.7-0.1,2.6
				c0,0.7-0.1,1.2-0.2,1.5c0,0.2-0.1,0.4-0.3,0.5c-0.1,0.1-0.3,0.1-0.5,0.1c-1.2,0-2.8-0.3-5-0.9h-0.2c-0.4,0-0.7,0.2-0.7,0.6
				c0,0.2,0.2,0.4,0.4,0.6c2.2,0.6,4,0.9,5.5,0.9c0.5,0,0.9-0.1,1.2-0.3c0.4-0.2,0.6-0.6,0.7-1.2c0.2-1,0.4-2.6,0.4-4.8
				C223.3,103.4,222.5,102.7,221.1,102.7z"/>
			<linearGradient id="SVGID_16_" gradientUnits="userSpaceOnUse" x1="272.0877" y1="96.7937" x2="277.4048" y2="96.7937">
				<stop  offset="0" style="stop-color:#8F6225;stop-opacity:0.6"/>
				<stop  offset="1" style="stop-color:#FBD8A8;stop-opacity:0.8"/>
			</linearGradient>
			<path class="st15" d="M276.3,99.9c0.1,0.2,0.3,0.3,0.6,0.3c0.3,0,0.5-0.2,0.6-0.6c0-0.1,0-0.3-0.1-0.5c-0.7-1.1-1.3-2.1-1.9-3
				c-0.6-0.8-1.3-1.6-2.2-2.6c-0.2-0.1-0.4-0.2-0.6-0.2c-0.3,0-0.5,0.2-0.6,0.5c0,0.2,0.1,0.4,0.3,0.7c0.9,1,1.6,1.8,2.2,2.6
				C275.1,97.9,275.7,98.8,276.3,99.9z"/>
			<linearGradient id="SVGID_17_" gradientUnits="userSpaceOnUse" x1="285.0929" y1="96.6974" x2="289.6669" y2="96.6974">
				<stop  offset="0" style="stop-color:#8F6225;stop-opacity:0.6"/>
				<stop  offset="1" style="stop-color:#FBD8A8;stop-opacity:0.8"/>
			</linearGradient>
			<path class="st16" d="M288.4,93.8c-0.9,2-2,3.7-3.2,5.2c-0.1,0.2-0.2,0.3-0.2,0.4c0,0.4,0.2,0.6,0.6,0.6c0.2,0,0.4-0.1,0.5-0.2
				c1.3-1.5,2.4-3.3,3.4-5.6c0-0.2,0.1-0.4,0.1-0.4c0-0.4-0.2-0.6-0.5-0.6C288.8,93.3,288.6,93.5,288.4,93.8z"/>
			<linearGradient id="SVGID_18_" gradientUnits="userSpaceOnUse" x1="270.2917" y1="101.1763" x2="292.0133" y2="101.1763">
				<stop  offset="0" style="stop-color:#8F6225;stop-opacity:0.6"/>
				<stop  offset="1" style="stop-color:#FBD8A8;stop-opacity:0.8"/>
			</linearGradient>
			<path class="st17" d="M291.4,101.9h-9.7V91.8h8.5c0.4,0,0.5-0.2,0.6-0.6c0-0.4-0.2-0.6-0.6-0.6h-18.1c-0.4,0-0.6,0.2-0.6,0.6
				c0,0.4,0.2,0.5,0.6,0.6h8.4v10.1h-9.6c-0.4,0-0.6,0.2-0.6,0.6c0,0.4,0.2,0.5,0.6,0.6h9.6v8.1c0,0.4,0.2,0.5,0.7,0.6
				c0.3,0,0.5-0.2,0.6-0.6V103h9.7c0.4,0,0.5-0.2,0.6-0.6C292,102.1,291.8,101.9,291.4,101.9z"/>
			<linearGradient id="SVGID_19_" gradientUnits="userSpaceOnUse" x1="338.6689" y1="94.8653" x2="358.8831" y2="94.8653">
				<stop  offset="0" style="stop-color:#8F6225;stop-opacity:0.6"/>
				<stop  offset="1" style="stop-color:#FBD8A8;stop-opacity:0.8"/>
			</linearGradient>
			<path class="st18" d="M356.4,95.8c-0.7-0.8-1.6-1.8-2.8-2.9c-0.2-0.1-0.4-0.2-0.6-0.2c-0.3,0.1-0.5,0.2-0.6,0.5
				c0,0.2,0.1,0.4,0.3,0.6c1.1,1.1,2,2.1,2.7,2.9c0,0,0.1,0.1,0.1,0.1c-3.1,0.8-7.9,1.2-14.5,1.2c2-1.5,3.6-2.8,4.7-4
				c1.1-1.1,2-2.1,2.7-3.2c0.2-0.2,0.3-0.4,0.3-0.6c0-0.4-0.3-0.7-0.7-0.7c-0.2,0-0.4,0.1-0.6,0.3c-0.9,1.4-1.9,2.7-3.1,4
				c-1.1,1.2-2.7,2.6-4.9,4.1c-0.5,0-0.7,0.2-0.7,0.6c0,0.4,0.3,0.7,0.8,0.7c8,0,13.6-0.5,16.9-1.5c0.4,0.6,0.9,1.3,1.4,2
				c0.1,0.2,0.3,0.3,0.6,0.3c0.3,0,0.5-0.2,0.6-0.6c0-0.1,0-0.3-0.1-0.5C358,97.8,357.2,96.7,356.4,95.8z"/>
			<linearGradient id="SVGID_20_" gradientUnits="userSpaceOnUse" x1="340.6335" y1="106.194" x2="356.8237" y2="106.194">
				<stop  offset="0" style="stop-color:#8F6225;stop-opacity:0.6"/>
				<stop  offset="1" style="stop-color:#FBD8A8;stop-opacity:0.8"/>
			</linearGradient>
			<path class="st19" d="M355.1,101.4h-12.8c-1.1,0-1.7,0.6-1.7,1.7v6.2c0,1.1,0.6,1.7,1.7,1.7h12.8c1.1,0,1.7-0.6,1.7-1.7v-6.2
				C356.8,102,356.3,101.4,355.1,101.4z M355.6,108.9c0,0.6-0.3,0.9-0.9,0.9h-11.9c-0.6,0-0.9-0.3-0.9-0.9v-5.4c0-0.6,0.3-1,0.9-1
				h11.9c0.6,0,0.9,0.3,0.9,1V108.9z"/>
		</g>
		<linearGradient id="SVGID_21_" gradientUnits="userSpaceOnUse" x1="204.7129" y1="72.9606" x2="221.5983" y2="72.9606">
			<stop  offset="0" style="stop-color:#8F6225;stop-opacity:0.6"/>
			<stop  offset="1" style="stop-color:#FBD8A8;stop-opacity:0.8"/>
		</linearGradient>
		<path class="st20" d="M221.6,73c0-0.9-0.7-1.7-1.7-1.7h-13.5c-0.9,0-1.7,0.7-1.7,1.7c0,0.9,0.7,1.7,1.7,1.7h13.5
			C220.9,74.6,221.6,73.9,221.6,73z"/>
		<g>
			<linearGradient id="SVGID_22_" gradientUnits="userSpaceOnUse" x1="187.0726" y1="45.9309" x2="202.1797" y2="45.9309">
				<stop  offset="0" style="stop-color:#8F6225;stop-opacity:0.6"/>
				<stop  offset="1" style="stop-color:#FBD8A8;stop-opacity:0.8"/>
			</linearGradient>
			<path class="st21" d="M200.5,32.9h-4.2v-9.6c0-0.9-0.7-1.7-1.7-1.7c-0.9,0-1.7,0.7-1.7,1.7v9.6h-4.2c-0.9,0-1.7,0.7-1.7,1.7
				c0,0.9,0.7,1.7,1.7,1.7h4.2V66l-3.4,0.9c-0.9,0.2-1.4,1.2-1.2,2c0.2,0.7,0.9,1.2,1.6,1.2c0.1,0,0.3,0,0.4-0.1L195,69
				c0,0,0.1,0,0.1,0l4.6-1.2c0.9-0.2,1.4-1.2,1.2-2c-0.2-0.9-1.2-1.4-2-1.2l-2.5,0.7V36.3h4.2c0.9,0,1.7-0.7,1.7-1.7
				C202.2,33.7,201.4,32.9,200.5,32.9z"/>
			<linearGradient id="SVGID_23_" gradientUnits="userSpaceOnUse" x1="205.67" y1="50.6416" x2="220.6411" y2="50.6416">
				<stop  offset="0" style="stop-color:#8F6225;stop-opacity:0.6"/>
				<stop  offset="1" style="stop-color:#FBD8A8;stop-opacity:0.8"/>
			</linearGradient>
			<path class="st22" d="M211.7,66.5h2.8c3.3,0,6.1-2.7,6.1-6.1V40.9c0-3.3-2.7-6.1-6.1-6.1h-2.8c-3.3,0-6.1,2.7-6.1,6.1v19.5
				C205.7,63.7,208.4,66.5,211.7,66.5z M209,40.9c0-1.5,1.2-2.7,2.7-2.7h2.8c1.5,0,2.7,1.2,2.7,2.7v19.5c0,1.5-1.2,2.7-2.7,2.7h-2.8
				c-1.5,0-2.7-1.2-2.7-2.7V40.9z"/>
			<linearGradient id="SVGID_24_" gradientUnits="userSpaceOnUse" x1="128.8895" y1="29.8336" x2="179.6226" y2="29.8336">
				<stop  offset="0" style="stop-color:#8F6225;stop-opacity:0.6"/>
				<stop  offset="1" style="stop-color:#FBD8A8;stop-opacity:0.8"/>
			</linearGradient>
			<path class="st23" d="M179.6,40.6c0-0.9-0.7-1.7-1.7-1.7h-22v-5.1h19c0.9,0,1.7-0.7,1.7-1.7c0-0.9-0.7-1.7-1.7-1.7h-19v-5.1h20.6
				c0.9,0,1.7-0.7,1.7-1.7c0-0.9-0.7-1.7-1.7-1.7h-20.6v-2.8c0-0.9-0.7-1.7-1.7-1.7c-0.9,0-1.7,0.7-1.7,1.7v2.8H132
				c-0.9,0-1.7,0.7-1.7,1.7c0,0.9,0.7,1.7,1.7,1.7h20.6v5.1h-19c-0.9,0-1.7,0.7-1.7,1.7c0,0.9,0.7,1.7,1.7,1.7h19v5.1h-22
				c-0.9,0-1.7,0.7-1.7,1.7c0,0.9,0.7,1.7,1.7,1.7H178C178.9,42.2,179.6,41.5,179.6,40.6z"/>
			<linearGradient id="SVGID_25_" gradientUnits="userSpaceOnUse" x1="262.3683" y1="47.0524" x2="299.3033" y2="47.0524">
				<stop  offset="0" style="stop-color:#8F6225;stop-opacity:0.6"/>
				<stop  offset="1" style="stop-color:#FBD8A8;stop-opacity:0.8"/>
			</linearGradient>
			<path class="st24" d="M290.2,46.1c3.3,0,6.1-2.7,6.1-6.1v-4.3h1.4c0.9,0,1.7-0.7,1.7-1.7c0-0.9-0.7-1.7-1.7-1.7h-1.4v-5.3
				c0-3.3-2.7-6.1-6.1-6.1h-7.8v-2c0-0.9-0.7-1.7-1.7-1.7c-0.9,0-1.7,0.7-1.7,1.7v2h-11.6c-0.9,0-1.7,0.7-1.7,1.7
				c0,0.9,0.7,1.7,1.7,1.7H279v8h-14.5c-0.9,0-1.7,0.7-1.7,1.7c0,0.9,0.7,1.7,1.7,1.7H279v7h-11.6c-0.9,0-1.7,0.7-1.7,1.7
				c0,0.9,0.7,1.7,1.7,1.7H279v6.7h-12.9c-0.9,0-1.7,0.7-1.7,1.7c0,0.9,0.7,1.7,1.7,1.7H279v7H264c-0.9,0-1.7,0.7-1.7,1.7
				c0,0.9,0.7,1.7,1.7,1.7H279V75c0,0.9,0.7,1.7,1.7,1.7c0.9,0,1.7-0.7,1.7-1.7v-8.4h14.8c0.9,0,1.7-0.7,1.7-1.7
				c0-0.9-0.7-1.7-1.7-1.7h-14.8v-7h12.8c0.9,0,1.7-0.7,1.7-1.7c0-0.9-0.7-1.7-1.7-1.7h-12.8v-6.7H290.2z M282.3,24.5h7.8
				c1.5,0,2.7,1.2,2.7,2.7v5.3h-10.6V24.5z M282.3,35.8h10.6v4.3c0,1.5-1.2,2.7-2.7,2.7h-7.8V35.8z"/>
			<linearGradient id="SVGID_26_" gradientUnits="userSpaceOnUse" x1="133.0307" y1="61.3769" x2="175.4817" y2="61.3769">
				<stop  offset="0" style="stop-color:#8F6225;stop-opacity:0.6"/>
				<stop  offset="1" style="stop-color:#FBD8A8;stop-opacity:0.8"/>
			</linearGradient>
			<path class="st25" d="M175.5,52.2c0-3.3-2.7-6.1-6.1-6.1h-30.2c-3.3,0-6.1,2.7-6.1,6.1v4.7c0,0.1-0.1,0.3-0.1,0.5
				c0,0.2,0,0.3,0.1,0.5v8.6c0,0.1-0.1,0.3-0.1,0.5c0,0.2,0,0.3,0.1,0.5V75c0,0.9,0.7,1.7,1.7,1.7c0.9,0,1.7-0.7,1.7-1.7v-6.5h35.7
				v2.1c0,1.5-1.2,2.7-2.7,2.7h-2.8c-0.9,0-1.7,0.7-1.7,1.7c0,0.9,0.7,1.7,1.7,1.7h2.8c3.3,0,6.1-2.7,6.1-6.1V52.2z M139.2,49.4
				h30.2c1.5,0,2.7,1.2,2.7,2.7v3.5h-35.7v-3.5C136.4,50.7,137.7,49.4,139.2,49.4z M136.4,65.2V59h35.7v6.2H136.4z"/>
			<linearGradient id="SVGID_27_" gradientUnits="userSpaceOnUse" x1="204.3578" y1="47.5577" x2="239.2132" y2="47.5577">
				<stop  offset="0" style="stop-color:#8F6225;stop-opacity:0.6"/>
				<stop  offset="1" style="stop-color:#FBD8A8;stop-opacity:0.8"/>
			</linearGradient>
			<path class="st26" d="M238.2,43.5c-0.8-0.4-1.8,0-2.2,0.9c0,0-1.3,3-3.2,6.4c-0.2-1-0.4-2-0.6-3c-1.4-6.9-2.5-13.8-3.2-19h4.1
				c3.3,0,6.1-2.7,6.1-6.1v-0.5c0-0.9-0.7-1.7-1.7-1.7c-0.9,0-1.7,0.7-1.7,1.7v0.5c0,1.5-1.2,2.7-2.7,2.7h-4.6
				c-0.4-3.2-0.6-5.3-0.6-5.3c-0.1-0.9-0.9-1.6-1.8-1.5c-0.9,0.1-1.6,0.9-1.5,1.8c0,0.1,0.2,2,0.6,5H206c-0.9,0-1.7,0.7-1.7,1.7
				c0,0.9,0.7,1.7,1.7,1.7h19.6c0.7,5.3,1.8,12.6,3.3,19.7c0.5,2.2,0.9,4.4,1.5,6.6c0,0,0,0.1-0.1,0.1c-3.1,4.7-7.2,9.3-7.3,9.3
				c-0.6,0.7-0.6,1.7,0.1,2.4c0.3,0.3,0.7,0.4,1.1,0.4c0.5,0,0.9-0.2,1.2-0.5c0.1-0.2,3.1-3.4,6-7.3c2.3,9.1,4.5,16.1,4.5,16.2
				c0.2,0.7,0.9,1.2,1.6,1.2c0.2,0,0.3,0,0.5-0.1c0.9-0.3,1.4-1.2,1.1-2.1c0-0.1-2.7-8.6-5.2-19c2.8-4.6,5-9.6,5.1-9.8
				C239.4,44.8,239.1,43.8,238.2,43.5z"/>
			<linearGradient id="SVGID_28_" gradientUnits="userSpaceOnUse" x1="247.7787" y1="56.1978" x2="257.9605" y2="56.1978">
				<stop  offset="0" style="stop-color:#8F6225;stop-opacity:0.6"/>
				<stop  offset="1" style="stop-color:#FBD8A8;stop-opacity:0.8"/>
			</linearGradient>
			<path class="st27" d="M256.8,35.9c-0.7-0.2-1.5,0-1.9,0.6l-6.8,9.8c-0.5,0.8-0.3,1.8,0.4,2.3c0.8,0.5,1.8,0.3,2.3-0.4l3.8-5.4
				v32.2c0,0.9,0.7,1.7,1.7,1.7c0.9,0,1.7-0.7,1.7-1.7V37.5C258,36.7,257.5,36.1,256.8,35.9z"/>
			<linearGradient id="SVGID_29_" gradientUnits="userSpaceOnUse" x1="247.0069" y1="27.5269" x2="260.7008" y2="27.5269">
				<stop  offset="0" style="stop-color:#8F6225;stop-opacity:0.6"/>
				<stop  offset="1" style="stop-color:#FBD8A8;stop-opacity:0.8"/>
			</linearGradient>
			<path class="st28" d="M250,35.9l10.4-14.8c0.5-0.8,0.3-1.8-0.4-2.3c-0.8-0.5-1.8-0.3-2.3,0.4L247.3,34c-0.5,0.8-0.3,1.8,0.4,2.3
				c0.3,0.2,0.6,0.3,1,0.3C249.2,36.6,249.7,36.3,250,35.9z"/>
			<linearGradient id="SVGID_30_" gradientUnits="userSpaceOnUse" x1="305.6043" y1="48.8829" x2="357.4527" y2="48.8829">
				<stop  offset="0" style="stop-color:#8F6225;stop-opacity:0.6"/>
				<stop  offset="1" style="stop-color:#FBD8A8;stop-opacity:0.8"/>
			</linearGradient>
			<path class="st29" d="M345.9,56.1c-3.1-6-5-11.9-5.9-14.9h15.7c0.9,0,1.7-0.7,1.7-1.7c0-0.9-0.7-1.7-1.7-1.7h-22.5V24.5h19.1
				c0.9,0,1.7-0.7,1.7-1.7c0-0.9-0.7-1.7-1.7-1.7h-41.6c-0.9,0-1.7,0.7-1.7,1.7c0,0.9,0.7,1.7,1.7,1.7h19.2v13.4h-22.7
				c-0.9,0-1.7,0.7-1.7,1.7c0,0.9,0.7,1.7,1.7,1.7h15.8c-0.8,3-2.7,8.9-5.9,14.9c-4.4,8.5-10.6,15.5-10.6,15.6
				c-0.6,0.7-0.5,1.7,0.2,2.4c0.3,0.3,0.7,0.4,1.1,0.4c0.5,0,0.9-0.2,1.3-0.6c0.3-0.3,6.4-7.4,11.1-16.2c3.6-6.9,5.6-13.7,6.4-16.4
				h3.4V75c0,0.9,0.7,1.7,1.7,1.7c0.9,0,1.7-0.7,1.7-1.7V41.2h3.4c0.7,2.8,2.7,9.5,6.4,16.4c4.6,8.8,10.8,15.9,11.1,16.2
				c0.3,0.4,0.8,0.6,1.3,0.6c0.4,0,0.8-0.1,1.1-0.4c0.7-0.6,0.8-1.7,0.2-2.4C356.5,71.6,350.4,64.6,345.9,56.1z"/>
		</g>
	</g>
</g>
<g id="图层_2">
</g>
</svg>
