<?xml version="1.0" encoding="utf-8"?>
<!-- Generator: Adobe Illustrator 21.0.0, SVG Export Plug-In . SVG Version: 6.00 Build 0)  -->
<svg version="1.1" id="图层_1" xmlns="http://www.w3.org/2000/svg" xmlns:xlink="http://www.w3.org/1999/xlink" x="0px" y="0px"
	 viewBox="0 0 40 40" style="enable-background:new 0 0 40 40;" xml:space="preserve">
<style type="text/css">
	.st0{fill:#FFFFFF;}
</style>
<path class="st0" d="M32,34.5c0.2,0.2,0.5,0.3,0.8,0.3s0.6-0.1,0.8-0.3c0.4-0.4,0.4-1.1,0-1.6c0,0,0,0,0,0l-4.3-4.3
	c2.6-2.5,4-6,4-9.7c0-7.5-6.1-13.6-13.6-13.6S6,11.5,6,19s6.1,13.6,13.6,13.6c1.2,0,2.3-0.2,3.5-0.5c0.6-0.2,0.9-0.8,0.8-1.3
	c-0.2-0.6-0.8-0.9-1.3-0.8c-1,0.3-2,0.4-2.9,0.4c-6.3,0-11.4-5.1-11.4-11.4S13.3,7.6,19.6,7.6S31,12.7,31,19c0,3.4-1.5,6.7-4.2,8.9
	c-0.5,0.4-0.5,1.1-0.2,1.5"/>
</svg>
