<?xml version="1.0" encoding="utf-8"?>
<!-- Generator: Adobe Illustrator 21.0.0, SVG Export Plug-In . SVG Version: 6.00 Build 0)  -->
<svg version="1.1" id="图层_1" xmlns="http://www.w3.org/2000/svg" xmlns:xlink="http://www.w3.org/1999/xlink" x="0px" y="0px"
	 viewBox="0 0 40 40" style="enable-background:new 0 0 40 40;" xml:space="preserve">
<style type="text/css">
	.st0{fill:#FF6E3F;}
	.st1{fill:none;stroke:#FF6E3F;stroke-width:2;stroke-miterlimit:10;}
	.st2{display:none;fill:#FEB403;}
</style>
<path class="st0" d="M14.1,7.4h11.8C27,7.4,28,8.5,28,9.9v20.3c0,1.4-1,2.5-2.1,2.5H14.1c-1.1,0-2.1-1.1-2.1-2.5V9.9
	C12,8.5,12.9,7.4,14.1,7.4L14.1,7.4z M18.9,31c-0.3,0-0.5,0.2-0.5,0.6l0,0c0,0.3,0.2,0.5,0.5,0.5h2.2c0.3,0,0.5-0.2,0.5-0.5l0,0
	c0-0.3-0.2-0.6-0.5-0.6L18.9,31L18.9,31z M13.1,9.7v20.7h13.8V9.7H13.1z"/>
<circle class="st1" cx="20" cy="20" r="18.4"/>
<path class="st2" d="M35.3,30l-4.7-8.1L26,30l-4.7,8.1h9.3H40L35.3,30z M31.4,36.6c-0.2,0.2-0.4,0.3-0.7,0.3c-0.3,0-0.5-0.1-0.7-0.3
	s-0.3-0.4-0.3-0.7s0.1-0.5,0.3-0.7c0.2-0.2,0.4-0.3,0.7-0.3c0.3,0,0.5,0.1,0.7,0.3s0.3,0.4,0.3,0.7C31.6,36.2,31.5,36.4,31.4,36.6z
	 M31.6,29.2l-0.3,3.2c0,0.4-0.1,0.7-0.2,0.9s-0.3,0.3-0.5,0.3s-0.4-0.1-0.5-0.3s-0.2-0.5-0.2-0.9l-0.2-3.1c0-0.6-0.1-1-0.1-1.3
	c0-0.4,0.1-0.6,0.3-0.8c0.2-0.2,0.4-0.3,0.7-0.3c0.4,0,0.6,0.1,0.7,0.4s0.2,0.6,0.2,1.1C31.6,28.7,31.6,28.9,31.6,29.2z"/>
</svg>
