<?xml version="1.0" encoding="utf-8"?>
<!-- Generator: Adobe Illustrator 21.0.0, SVG Export Plug-In . SVG Version: 6.00 Build 0)  -->
<svg version="1.1" id="图层_1" xmlns="http://www.w3.org/2000/svg" xmlns:xlink="http://www.w3.org/1999/xlink" x="0px" y="0px"
	 viewBox="0 0 40 40" style="enable-background:new 0 0 40 40;" xml:space="preserve">
<style type="text/css">
	.st0{fill:none;stroke:#888888;stroke-width:2;stroke-miterlimit:10;}
	.st1{display:none;}
	.st2{display:inline;fill:#888888;}
	.st3{fill:#888888;}
	.st4{fill:#FEB403;}
</style>
<circle class="st0" cx="20" cy="20" r="18.4"/>
<g class="st1">
	<path class="st2" d="M31.5,12.2c-0.2-0.2-0.6-0.4-0.9-0.4H9.4c-0.3,0-0.6,0.1-0.9,0.4c-0.2,0.2-0.4,0.6-0.4,0.9v13.8
		c0,0.3,0.1,0.6,0.4,0.9c0.2,0.2,0.6,0.4,0.9,0.4h21.3c0.3,0,0.6-0.1,0.9-0.4s0.4-0.6,0.4-0.9V13.1C31.9,12.8,31.8,12.5,31.5,12.2z
		 M30.6,26.3c0,0.2-0.1,0.3-0.2,0.4s-0.3,0.2-0.4,0.2H10c-0.2,0-0.3-0.1-0.4-0.2s-0.2-0.3-0.2-0.4V13.8c0-0.2,0.1-0.3,0.2-0.4
		c0.1-0.1,0.3-0.2,0.4-0.2h20c0.2,0,0.3,0.1,0.4,0.2c0.1,0.1,0.2,0.3,0.2,0.4V26.3z"/>
	<path class="st2" d="M23.9,19.3l5.3-3.8c0.3-0.2,0.3-0.6,0.1-0.9c-0.2-0.3-0.6-0.3-0.9-0.1l-8,5.7c-0.1,0.1-0.2,0.1-0.4,0.1
		s-0.3,0-0.4-0.1l-8-5.7c-0.3-0.2-0.7-0.1-0.9,0.1c-0.2,0.3-0.1,0.7,0.1,0.9l5.2,3.8l-5.3,5.4c-0.2,0.2-0.2,0.6,0,0.9
		c0.2,0.2,0.6,0.2,0.9,0l5.5-5.6l2.1,1.5c0.2,0.1,0.5,0.2,0.7,0.2c0.3,0,0.5-0.1,0.7-0.2l2.1-1.5l5.5,5.6c0.2,0.2,0.6,0.3,0.9,0
		s0.3-0.6,0-0.9L23.9,19.3z"/>
</g>
<path class="st3" d="M20.1,20.5C20.1,20.5,20,20.5,20.1,20.5c-0.2,0-0.2,0-0.3,0c-2.8-0.1-5-2.5-5-5.3c0-2.9,2.4-5.3,5.3-5.3
	c2.9,0,5.3,2.4,5.3,5.3C25.3,18.1,22.9,20.5,20.1,20.5L20.1,20.5z M20,8.9c-3.5,0-6.3,2.9-6.3,6.4c0,2.5,1.4,4.7,3.5,5.7
	c-1.5,0.5-2.8,1.3-3.9,2.4C11.5,25.1,10,28,10,30.6c0,0.3,0.2,0.5,0.5,0.5s0.5-0.2,0.5-0.5c0-2.3,1.4-4.9,3-6.5
	c1.5-1.5,3.5-2.4,5.7-2.5c0.1,0,0.2,0,0.2,0c3.5,0,6.3-2.9,6.3-6.4C26.3,11.7,23.5,8.9,20,8.9L20,8.9z M26.7,23.3
	c-0.2-0.2-0.5-0.2-0.7,0c-0.2,0.2-0.2,0.5,0,0.7c1.6,1.6,3,4.3,3,6.5c0,0.3,0.2,0.5,0.5,0.5c0.3,0,0.5-0.2,0.5-0.5
	C30,28,28.5,25.1,26.7,23.3L26.7,23.3z"/>
<path class="st4" d="M35.3,30l-4.7-8.1L26,30l-4.7,8.1h9.3H40L35.3,30z M31.4,36.6c-0.2,0.2-0.4,0.3-0.7,0.3c-0.3,0-0.5-0.1-0.7-0.3
	s-0.3-0.4-0.3-0.7s0.1-0.5,0.3-0.7c0.2-0.2,0.4-0.3,0.7-0.3c0.3,0,0.5,0.1,0.7,0.3s0.3,0.4,0.3,0.7C31.6,36.2,31.5,36.4,31.4,36.6z
	 M31.6,29.2l-0.3,3.2c0,0.4-0.1,0.7-0.2,0.9s-0.3,0.3-0.5,0.3s-0.4-0.1-0.5-0.3s-0.2-0.5-0.2-0.9l-0.2-3.1c0-0.6-0.1-1-0.1-1.3
	c0-0.4,0.1-0.6,0.3-0.8c0.2-0.2,0.4-0.3,0.7-0.3c0.4,0,0.6,0.1,0.7,0.4s0.2,0.6,0.2,1.1C31.6,28.7,31.6,28.9,31.6,29.2z"/>
</svg>
